# xmcd
#
# Track frame offsets: 
#        150
#        18011
#        34661
#        48876
#        59884
#        74632
#        87529
#        100345
#        117450
#        131888
#        146542
#        165815
#        178315
#
# Disc length: 2575 seconds
#
# Revision: 0
# Processed by: cddbd v1.5.1PL0 Copyright (c) Steve Scherf et al.
# Submitted via: ExactAudioCopy v0.95a5
#
DISCID=bd0a0d0d
DTITLE=Paulo Henrique e Raphael - Perigosas Paixoes
DYEAR=2002
DGENRE=Sertanejo
TTITLE0=Pra Falar a Verdade
TTITLE1=Solamente Tu Amor
TTITLE2=Escorpiao
TTITLE3=Meu Eterno Amor
TTITLE4=Misteriosa
TTITLE5=Fera Indomada
TTITLE6=Chama-me
TTITLE7=Rio e Nova York
TTITLE8=Perigosas Paixoes
TTITLE9=Na Hora do Banho
TTITLE10=Do Nada
TTITLE11=Sim ou Nao
TTITLE12=Gosto de Cafe Amargo
EXTD=
EXTT0=
EXTT1=
EXTT2=
EXTT3=
EXTT4=
EXTT5=
EXTT6=
EXTT7=
EXTT8=
EXTT9=
EXTT10=
EXTT11=
EXTT12=
PLAYORDER=
